<?xml version="1.0" encoding="iso-8859-1"?>
<!-- Generator: Adobe Illustrator 18.0.0, SVG Export Plug-In . SVG Version: 6.00 Build 0)  -->
<!DOCTYPE svg PUBLIC "-//W3C//DTD SVG 1.1//EN" "http://www.w3.org/Graphics/SVG/1.1/DTD/svg11.dtd">
<svg version="1.1" id="Capa_1" xmlns="http://www.w3.org/2000/svg" xmlns:xlink="http://www.w3.org/1999/xlink" x="0px" y="0px"
	 viewBox="0 0 490 490" style="enable-background:new 0 0 490 490;" xml:space="preserve">
<g>
	<g>
		<path d="M464.979,334.57H25.024C11.226,334.57,0,323.349,0,309.553V72.987c0-13.795,11.226-25.018,25.024-25.018h439.955
			c13.793,0,25.021,11.223,25.021,25.018v236.566C490,323.349,478.772,334.57,464.979,334.57z M25.024,68.178
			c-2.654,0-4.817,2.157-4.817,4.809v236.566c0,2.652,2.163,4.81,4.817,4.81h439.955c2.653,0,4.813-2.158,4.813-4.81V72.987
			c0-2.652-2.159-4.809-4.813-4.809H25.024z"/>
	</g>
	<g>
		<path d="M192.69,268.058c-3.318-1.815-5.476-5.198-5.476-8.978V123.461c0-3.782,2.114-7.245,5.476-8.98
			c3.36-1.734,7.404-1.445,10.486,0.747l95.358,67.809c2.668,1.896,4.248,4.964,4.248,8.234c0,3.271-1.58,6.339-4.248,8.235
			c0,0-71.522,50.854-95.358,67.807C201.434,268.552,197.679,270.789,192.69,268.058z M207.425,143.045v96.451l67.817-48.225
			L207.425,143.045z"/>
	</g>
	<path d="M479.897,391.927H286.767c-4.485-17.18-20.137-29.894-38.702-29.894c-18.563,0-34.211,12.714-38.697,29.894H10.104
		C4.525,391.927,0,396.452,0,402.031c0,5.581,4.525,10.104,10.104,10.104h199.265c4.486,17.18,20.135,29.896,38.697,29.896
		c18.565,0,34.217-12.717,38.702-29.896h193.129c5.575,0,10.103-4.522,10.103-10.104C490,396.452,485.472,391.927,479.897,391.927z
		 M248.065,421.821c-10.908,0-19.788-8.878-19.788-19.791c0-10.911,8.88-19.788,19.788-19.788c10.913,0,19.791,8.877,19.791,19.788
		C267.856,412.944,258.978,421.821,248.065,421.821z"/>
</g>
<g>
</g>
<g>
</g>
<g>
</g>
<g>
</g>
<g>
</g>
<g>
</g>
<g>
</g>
<g>
</g>
<g>
</g>
<g>
</g>
<g>
</g>
<g>
</g>
<g>
</g>
<g>
</g>
<g>
</g>
</svg>
